<svg xmlns="http://www.w3.org/2000/svg" width="1023.99994" height="628" viewBox="0 0 1023.99994 628" font-family="SF Mono, Menlo, Consolas, 'DejaVu Sans Mono', monospace" font-size="14"><rect width="100%" height="100%" rx="8" fill="#1f1f1f"/><rect x="66.799995" y="8" width="33.6" height="18" fill="#3f7396"/><rect x="184.4" y="8" width="84" height="18" fill="#3f7396"/><text x="8" y="21.5" fill="#3f7396" xml:space="preserve" font-weight="bold"> YARA </text><text x="66.799995" y="21.5" fill="#1f1f1f" xml:space="preserve">File</text><text x="100.399994" y="21.5" fill="#cccccc" xml:space="preserve">  Help </text><text x="159.2" y="21.5" fill="#8b8b8b" xml:space="preserve"> │ </text><text x="184.4" y="21.5" fill="#1f1f1f" xml:space="preserve" font-weight="bold"> checkout </text><text x="276.8" y="21.5" fill="#8b8b8b" xml:space="preserve"> logout flow </text><text x="394.4" y="21.5" fill="#2ea043" xml:space="preserve">[+]</text><text x="856.39996" y="21.5" fill="#2ea043" xml:space="preserve">● claude — running </text><text x="8" y="39.5" fill="#8b8b8b" xml:space="preserve">┌ AGENT</text><text x="66.799995" y="39.5" fill="#3f7396" xml:space="preserve">┌</text><text x="75.2" y="39.5" fill="#3f7396" xml:space="preserve" font-weight="bold"> File </text><text x="125.59999" y="39.5" fill="#3f7396" xml:space="preserve">────────────────────────────┐</text><text x="369.19998" y="39.5" fill="#8b8b8b" xml:space="preserve">──────┐</text><text x="436.4" y="39.5" fill="#3f7396" xml:space="preserve">┌</text><text x="444.8" y="39.5" fill="#3f7396" xml:space="preserve" font-weight="bold"> FOLLOW · LIVE </text><text x="570.8" y="39.5" fill="#3f7396" xml:space="preserve">────────────────────────────────────────────────────┐</text><rect x="75.2" y="44" width="277.19998" height="18" fill="#04395e"/><text x="8" y="57.5" fill="#8b8b8b" xml:space="preserve">│</text><text x="16.4" y="57.5" fill="#cccccc" xml:space="preserve" font-weight="bold">&gt; fix </text><text x="66.799995" y="57.5" fill="#3f7396" xml:space="preserve">│</text><text x="75.2" y="57.5" fill="#cccccc" xml:space="preserve"> Open Recent Workspace…        </text><text x="335.59998" y="57.5" fill="#8b8b8b" xml:space="preserve">^R</text><text x="360.8" y="57.5" fill="#3f7396" xml:space="preserve">│</text><text x="419.59998" y="57.5" fill="#8b8b8b" xml:space="preserve">│</text><text x="436.4" y="57.5" fill="#3f7396" xml:space="preserve">│</text><text x="444.8" y="57.5" fill="#cccccc" xml:space="preserve" font-weight="bold">frontend/src/login.js</text><text x="621.19995" y="57.5" fill="#2ea043" xml:space="preserve"> +3</text><text x="646.39996" y="57.5" fill="#3f7396" xml:space="preserve"> −2</text><text x="915.19995" y="57.5" fill="#8b8b8b" xml:space="preserve">[ v: diff ]</text><text x="1007.6" y="57.5" fill="#3f7396" xml:space="preserve">│</text><text x="8" y="75.5" fill="#8b8b8b" xml:space="preserve">│</text><text x="66.799995" y="75.5" fill="#3f7396" xml:space="preserve">│</text><text x="75.2" y="75.5" fill="#2b2b2b" xml:space="preserve">──────────────────────────────────</text><text x="360.8" y="75.5" fill="#3f7396" xml:space="preserve">│</text><text x="419.59998" y="75.5" fill="#8b8b8b" xml:space="preserve">│</text><text x="436.4" y="75.5" fill="#3f7396" xml:space="preserve">│</text><text x="444.8" y="75.5" fill="#8b8b8b" xml:space="preserve">edits ○</text><text x="503.59998" y="75.5" fill="#3f7396" xml:space="preserve">◉</text><text x="511.99997" y="75.5" fill="#8b8b8b" xml:space="preserve"> [2/2]</text><text x="705.19995" y="75.5" fill="#8b8b8b" xml:space="preserve">← → scrub · f live · ⏎ mark reviewed</text><text x="1007.6" y="75.5" fill="#3f7396" xml:space="preserve">│</text><rect x="444.8" y="80" width="285.59998" height="18" fill="#4b1818"/><text x="8" y="93.5" fill="#8b8b8b" xml:space="preserve">│</text><text x="16.4" y="93.5" fill="#cccccc" xml:space="preserve">I'll l</text><text x="66.799995" y="93.5" fill="#3f7396" xml:space="preserve">│</text><text x="75.2" y="93.5" fill="#cccccc" xml:space="preserve"> Add Folder to Workspace…         </text><text x="360.8" y="93.5" fill="#3f7396" xml:space="preserve">│</text><text x="369.19998" y="93.5" fill="#cccccc" xml:space="preserve">rst.  </text><text x="419.59998" y="93.5" fill="#8b8b8b" xml:space="preserve">│</text><text x="436.4" y="93.5" fill="#3f7396" xml:space="preserve">│</text><text x="453.19998" y="93.5" fill="#8b8b8b" xml:space="preserve">    1 </text><text x="503.59998" y="93.5" fill="#7fafcc" xml:space="preserve">−</text><text x="511.99997" y="93.5" fill="#cccccc" xml:space="preserve"> export function login() {                                 </text><text x="1007.6" y="93.5" fill="#3f7396" xml:space="preserve">│</text><rect x="444.8" y="98" width="310.8" height="18" fill="#4b1818"/><text x="8" y="111.5" fill="#8b8b8b" xml:space="preserve">│</text><text x="66.799995" y="111.5" fill="#3f7396" xml:space="preserve">│</text><text x="75.2" y="111.5" fill="#cccccc" xml:space="preserve"> Remove Folder…                   </text><text x="360.8" y="111.5" fill="#3f7396" xml:space="preserve">│</text><text x="419.59998" y="111.5" fill="#8b8b8b" xml:space="preserve">│</text><text x="436.4" y="111.5" fill="#3f7396" xml:space="preserve">│</text><text x="453.19998" y="111.5" fill="#8b8b8b" xml:space="preserve">    2 </text><text x="503.59998" y="111.5" fill="#7fafcc" xml:space="preserve">−</text><text x="511.99997" y="111.5" fill="#cccccc" xml:space="preserve">   return post("/login", {});                              </text><text x="1007.6" y="111.5" fill="#3f7396" xml:space="preserve">│</text><rect x="444.8" y="116" width="319.19998" height="18" fill="#1b3b22"/><text x="8" y="129.5" fill="#8b8b8b" xml:space="preserve">│</text><text x="16.4" y="129.5" fill="#87afd7" xml:space="preserve">● Read</text><text x="66.799995" y="129.5" fill="#3f7396" xml:space="preserve">│</text><text x="75.2" y="129.5" fill="#2b2b2b" xml:space="preserve">──────────────────────────────────</text><text x="360.8" y="129.5" fill="#3f7396" xml:space="preserve">│</text><text x="419.59998" y="129.5" fill="#8b8b8b" xml:space="preserve">│</text><text x="436.4" y="129.5" fill="#3f7396" xml:space="preserve">│</text><text x="453.19998" y="129.5" fill="#8b8b8b" xml:space="preserve">    1 </text><text x="503.59998" y="129.5" fill="#56d364" xml:space="preserve">+</text><text x="511.99997" y="129.5" fill="#cccccc" xml:space="preserve"> export function login(next) {                             </text><text x="1007.6" y="129.5" fill="#3f7396" xml:space="preserve">│</text><rect x="444.8" y="134" width="403.19998" height="18" fill="#1b3b22"/><text x="8" y="147.5" fill="#8b8b8b" xml:space="preserve">│</text><text x="16.4" y="147.5" fill="#87afd7" xml:space="preserve">✳ Edit</text><text x="66.799995" y="147.5" fill="#3f7396" xml:space="preserve">│</text><text x="75.2" y="147.5" fill="#cccccc" xml:space="preserve"> New Task…                     </text><text x="335.59998" y="147.5" fill="#8b8b8b" xml:space="preserve">F7</text><text x="360.8" y="147.5" fill="#3f7396" xml:space="preserve">│</text><text x="419.59998" y="147.5" fill="#8b8b8b" xml:space="preserve">│</text><text x="436.4" y="147.5" fill="#3f7396" xml:space="preserve">│</text><text x="453.19998" y="147.5" fill="#8b8b8b" xml:space="preserve">    2 </text><text x="503.59998" y="147.5" fill="#56d364" xml:space="preserve">+</text><text x="511.99997" y="147.5" fill="#cccccc" xml:space="preserve">   const to = next ?? location.pathname;                   </text><text x="1007.6" y="147.5" fill="#3f7396" xml:space="preserve">│</text><rect x="444.8" y="152" width="344.4" height="18" fill="#1b3b22"/><text x="8" y="165.5" fill="#8b8b8b" xml:space="preserve">│</text><text x="16.4" y="165.5" fill="#87afd7" xml:space="preserve">✳ Edit</text><text x="66.799995" y="165.5" fill="#3f7396" xml:space="preserve">│</text><text x="75.2" y="165.5" fill="#2b2b2b" xml:space="preserve">──────────────────────────────────</text><text x="360.8" y="165.5" fill="#3f7396" xml:space="preserve">│</text><text x="419.59998" y="165.5" fill="#8b8b8b" xml:space="preserve">│</text><text x="436.4" y="165.5" fill="#3f7396" xml:space="preserve">│</text><text x="453.19998" y="165.5" fill="#8b8b8b" xml:space="preserve">    3 </text><text x="503.59998" y="165.5" fill="#56d364" xml:space="preserve">+</text><text x="511.99997" y="165.5" fill="#cccccc" xml:space="preserve">   return post("/login", { to });                          </text><text x="1007.6" y="165.5" fill="#3f7396" xml:space="preserve">│</text><text x="8" y="183.5" fill="#8b8b8b" xml:space="preserve">│</text><text x="66.799995" y="183.5" fill="#3f7396" xml:space="preserve">│</text><text x="75.2" y="183.5" fill="#cccccc" xml:space="preserve"> Settings                     </text><text x="327.19998" y="183.5" fill="#8b8b8b" xml:space="preserve">F12</text><text x="360.8" y="183.5" fill="#3f7396" xml:space="preserve">│</text><text x="419.59998" y="183.5" fill="#8b8b8b" xml:space="preserve">│</text><text x="436.4" y="183.5" fill="#3f7396" xml:space="preserve">│</text><text x="453.19998" y="183.5" fill="#8b8b8b" xml:space="preserve">    4 </text><text x="503.59998" y="183.5" fill="#cccccc" xml:space="preserve">  }                                                         </text><text x="1007.6" y="183.5" fill="#3f7396" xml:space="preserve">│</text><text x="8" y="201.5" fill="#8b8b8b" xml:space="preserve">│</text><text x="16.4" y="201.5" fill="#cccccc" xml:space="preserve">The re</text><text x="66.799995" y="201.5" fill="#3f7396" xml:space="preserve">│</text><text x="75.2" y="201.5" fill="#2b2b2b" xml:space="preserve">──────────────────────────────────</text><text x="360.8" y="201.5" fill="#3f7396" xml:space="preserve">│</text><text x="369.19998" y="201.5" fill="#cccccc" xml:space="preserve">and th</text><text x="419.59998" y="201.5" fill="#8b8b8b" xml:space="preserve">│</text><text x="436.4" y="201.5" fill="#3f7396" xml:space="preserve">│</text><text x="1007.6" y="201.5" fill="#3f7396" xml:space="preserve">│</text><text x="8" y="219.5" fill="#8b8b8b" xml:space="preserve">│</text><text x="66.799995" y="219.5" fill="#3f7396" xml:space="preserve">│</text><text x="75.2" y="219.5" fill="#cccccc" xml:space="preserve"> Quit                          </text><text x="335.59998" y="219.5" fill="#8b8b8b" xml:space="preserve">^Q</text><text x="360.8" y="219.5" fill="#3f7396" xml:space="preserve">│</text><text x="419.59998" y="219.5" fill="#8b8b8b" xml:space="preserve">│</text><text x="436.4" y="219.5" fill="#3f7396" xml:space="preserve">│</text><text x="1007.6" y="219.5" fill="#3f7396" xml:space="preserve">│</text><text x="8" y="237.5" fill="#8b8b8b" xml:space="preserve">│</text><text x="16.4" y="237.5" fill="#87af87" xml:space="preserve">✓ 14 t</text><text x="66.799995" y="237.5" fill="#3f7396" xml:space="preserve">└──────────────────────────────────┘</text><text x="419.59998" y="237.5" fill="#8b8b8b" xml:space="preserve">│</text><text x="436.4" y="237.5" fill="#3f7396" xml:space="preserve">│</text><text x="1007.6" y="237.5" fill="#3f7396" xml:space="preserve">│</text><text x="8" y="255.5" fill="#8b8b8b" xml:space="preserve">│</text><text x="419.59998" y="255.5" fill="#8b8b8b" xml:space="preserve">│</text><text x="436.4" y="255.5" fill="#3f7396" xml:space="preserve">│</text><text x="1007.6" y="255.5" fill="#3f7396" xml:space="preserve">│</text><text x="8" y="273.5" fill="#8b8b8b" xml:space="preserve">│</text><text x="16.4" y="273.5" fill="#cccccc" xml:space="preserve">&gt;                                               </text><text x="419.59998" y="273.5" fill="#8b8b8b" xml:space="preserve">│</text><text x="436.4" y="273.5" fill="#3f7396" xml:space="preserve">│</text><text x="1007.6" y="273.5" fill="#3f7396" xml:space="preserve">│</text><text x="8" y="291.5" fill="#8b8b8b" xml:space="preserve">│</text><text x="419.59998" y="291.5" fill="#8b8b8b" xml:space="preserve">│</text><text x="436.4" y="291.5" fill="#3f7396" xml:space="preserve">│</text><text x="1007.6" y="291.5" fill="#3f7396" xml:space="preserve">│</text><text x="8" y="309.5" fill="#8b8b8b" xml:space="preserve">│</text><text x="419.59998" y="309.5" fill="#8b8b8b" xml:space="preserve">│</text><text x="436.4" y="309.5" fill="#3f7396" xml:space="preserve">│</text><text x="1007.6" y="309.5" fill="#3f7396" xml:space="preserve">│</text><text x="8" y="327.5" fill="#8b8b8b" xml:space="preserve">│</text><text x="419.59998" y="327.5" fill="#8b8b8b" xml:space="preserve">│</text><text x="436.4" y="327.5" fill="#3f7396" xml:space="preserve">│</text><text x="1007.6" y="327.5" fill="#3f7396" xml:space="preserve">│</text><text x="8" y="345.5" fill="#8b8b8b" xml:space="preserve">│</text><text x="419.59998" y="345.5" fill="#8b8b8b" xml:space="preserve">│</text><text x="436.4" y="345.5" fill="#3f7396" xml:space="preserve">│</text><text x="1007.6" y="345.5" fill="#3f7396" xml:space="preserve">│</text><text x="8" y="363.5" fill="#8b8b8b" xml:space="preserve">│</text><text x="419.59998" y="363.5" fill="#8b8b8b" xml:space="preserve">│</text><text x="436.4" y="363.5" fill="#3f7396" xml:space="preserve">│</text><text x="1007.6" y="363.5" fill="#3f7396" xml:space="preserve">│</text><text x="8" y="381.5" fill="#8b8b8b" xml:space="preserve">│</text><text x="419.59998" y="381.5" fill="#8b8b8b" xml:space="preserve">│</text><text x="436.4" y="381.5" fill="#3f7396" xml:space="preserve">│</text><text x="1007.6" y="381.5" fill="#3f7396" xml:space="preserve">│</text><text x="8" y="399.5" fill="#8b8b8b" xml:space="preserve">│</text><text x="419.59998" y="399.5" fill="#8b8b8b" xml:space="preserve">│</text><text x="436.4" y="399.5" fill="#3f7396" xml:space="preserve">│</text><text x="1007.6" y="399.5" fill="#3f7396" xml:space="preserve">│</text><text x="8" y="417.5" fill="#8b8b8b" xml:space="preserve">│</text><text x="419.59998" y="417.5" fill="#8b8b8b" xml:space="preserve">│</text><text x="436.4" y="417.5" fill="#3f7396" xml:space="preserve">│</text><text x="1007.6" y="417.5" fill="#3f7396" xml:space="preserve">│</text><text x="8" y="435.5" fill="#8b8b8b" xml:space="preserve">│</text><text x="419.59998" y="435.5" fill="#8b8b8b" xml:space="preserve">│</text><text x="436.4" y="435.5" fill="#3f7396" xml:space="preserve">│</text><text x="1007.6" y="435.5" fill="#3f7396" xml:space="preserve">│</text><text x="8" y="453.5" fill="#8b8b8b" xml:space="preserve">│</text><text x="419.59998" y="453.5" fill="#8b8b8b" xml:space="preserve">│</text><text x="436.4" y="453.5" fill="#3f7396" xml:space="preserve">│</text><text x="1007.6" y="453.5" fill="#3f7396" xml:space="preserve">│</text><text x="8" y="471.5" fill="#8b8b8b" xml:space="preserve">│</text><text x="419.59998" y="471.5" fill="#8b8b8b" xml:space="preserve">│</text><text x="436.4" y="471.5" fill="#3f7396" xml:space="preserve">│</text><text x="1007.6" y="471.5" fill="#3f7396" xml:space="preserve">│</text><text x="8" y="489.5" fill="#8b8b8b" xml:space="preserve">│</text><text x="419.59998" y="489.5" fill="#8b8b8b" xml:space="preserve">│</text><text x="436.4" y="489.5" fill="#3f7396" xml:space="preserve">│</text><text x="1007.6" y="489.5" fill="#3f7396" xml:space="preserve">│</text><text x="8" y="507.5" fill="#8b8b8b" xml:space="preserve">│</text><text x="419.59998" y="507.5" fill="#8b8b8b" xml:space="preserve">│</text><text x="436.4" y="507.5" fill="#3f7396" xml:space="preserve">│</text><text x="1007.6" y="507.5" fill="#3f7396" xml:space="preserve">│</text><text x="8" y="525.5" fill="#8b8b8b" xml:space="preserve">│</text><text x="419.59998" y="525.5" fill="#8b8b8b" xml:space="preserve">│</text><text x="436.4" y="525.5" fill="#3f7396" xml:space="preserve">│</text><text x="1007.6" y="525.5" fill="#3f7396" xml:space="preserve">│</text><text x="8" y="543.5" fill="#8b8b8b" xml:space="preserve">│</text><text x="419.59998" y="543.5" fill="#8b8b8b" xml:space="preserve">│</text><text x="436.4" y="543.5" fill="#3f7396" xml:space="preserve">│</text><text x="1007.6" y="543.5" fill="#3f7396" xml:space="preserve">│</text><text x="8" y="561.5" fill="#8b8b8b" xml:space="preserve">│</text><text x="419.59998" y="561.5" fill="#8b8b8b" xml:space="preserve">│</text><text x="436.4" y="561.5" fill="#3f7396" xml:space="preserve">│</text><text x="1007.6" y="561.5" fill="#3f7396" xml:space="preserve">│</text><text x="8" y="579.5" fill="#8b8b8b" xml:space="preserve">│</text><text x="419.59998" y="579.5" fill="#8b8b8b" xml:space="preserve">│</text><text x="436.4" y="579.5" fill="#3f7396" xml:space="preserve">│</text><text x="1007.6" y="579.5" fill="#3f7396" xml:space="preserve">│</text><text x="8" y="597.5" fill="#8b8b8b" xml:space="preserve">└────────────────────────────────────────────────┘</text><text x="436.4" y="597.5" fill="#3f7396" xml:space="preserve">└───────────────────────────────────────────────────────────────────┘</text><text x="8" y="615.5" fill="#cccccc" xml:space="preserve"> ⎇ — +2 folders </text><text x="142.4" y="615.5" fill="#8b8b8b" xml:space="preserve">…ots-18469/checkout</text><text x="302" y="615.5" fill="#2ea043" xml:space="preserve">  +6</text><text x="335.59998" y="615.5" fill="#3f7396" xml:space="preserve"> −2</text><text x="377.59998" y="615.5" fill="#3f7396" xml:space="preserve">◆ 1 unreviewed</text><text x="503.59998" y="615.5" fill="#8b8b8b" xml:space="preserve">F4 changes  ^B files  F5 palette  F3 search  F1 keys  v1.0.0 </text></svg>
